/* XPM */
static const char *coin[] = {
/* columns rows colors chars-per-pixel */
"50 50 146 2 ",
"   c #151327",
".  c #191728",
"X  c #1B1828",
"o  c #211E2A",
"O  c #23202B",
"+  c #26232B",
"@  c #29252C",
"#  c #2B272C",
"$  c #2C282D",
"%  c #322E2E",
"&  c #383330",
"*  c #3B3630",
"=  c #403930",
"-  c #494234",
";  c #4F4835",
":  c #554D37",
">  c #5B5338",
",  c #675C34",
"<  c #61583A",
"1  c #675E3B",
"2  c #686235",
"3  c #6C633D",
"4  c #736737",
"5  c #71693A",
"6  c #746D38",
"7  c #72683E",
"8  c #796D3A",
"9  c #867632",
"0  c #807236",
"q  c #81783E",
"w  c #847A3E",
"e  c #8B7D3C",
"r  c #A3891C",
"t  c #A3891D",
"y  c #AF931B",
"u  c #B69817",
"i  c #94802B",
"p  c #96812A",
"a  c #95812C",
"s  c #988533",
"d  c #94843C",
"f  c #958C3D",
"g  c #9D8B3A",
"h  c #9C8A3B",
"j  c #9D8F3C",
"k  c #9E953D",
"l  c #A48B21",
"z  c #A69236",
"x  c #A1923B",
"c  c #A4913A",
"v  c #A5943B",
"b  c #A5963B",
"n  c #A2983C",
"m  c #A69A3C",
"M  c #A79C3C",
"N  c #A79E3D",
"B  c #AD983A",
"V  c #BAA02E",
"C  c #B0A73C",
"Z  c #B5AD3C",
"A  c #B9AF3C",
"S  c #BCB33C",
"D  c #CBA70C",
"F  c #CDA80A",
"G  c #CCA80E",
"H  c #DFB500",
"J  c #C4A210",
"K  c #C3A216",
"L  c #C7A81E",
"P  c #C8A819",
"I  c #E0B702",
"U  c #E1B703",
"Y  c #E1B904",
"T  c #E3BD07",
"R  c #E1B90A",
"E  c #E4BB0A",
"W  c #E5BD0D",
"Q  c #E7BF10",
"!  c #D5B421",
"~  c #CAB036",
"^  c #CEB437",
"/  c #C1B93C",
"(  c #D7BA33",
")  c #D7BB37",
"_  c #D7BF37",
"`  c #DBBE36",
"'  c #E7C60F",
"]  c #E8C213",
"[  c #E8C114",
"{  c #ECC61A",
"}  c #EDC71C",
"|  c #EDC81E",
" . c #EECD1F",
".. c #C9C13C",
"X. c #DFC136",
"o. c #D1C43A",
"O. c #D8C138",
"+. c #D8C438",
"@. c #D3CB3B",
"#. c #DBD13A",
"$. c #DCD43B",
"%. c #EFCA21",
"&. c #F1CF24",
"*. c #F2CD27",
"=. c #F2D624",
"-. c #F1DB21",
";. c #E7C835",
":. c #EDCE35",
">. c #E1CD38",
",. c #F0CF35",
"<. c #ECD336",
"1. c #EFD737",
"2. c #E5DD3B",
"3. c #EDDA38",
"4. c #EEDA38",
"5. c #EDDD38",
"6. c #EEDD38",
"7. c #F5D331",
"8. c #F6D431",
"9. c #F7D532",
"0. c #F0D034",
"q. c #F6D534",
"w. c #F8D634",
"e. c #F8D734",
"r. c #F8D832",
"t. c #F9DA35",
"y. c #F9DC35",
"u. c #FADF36",
"i. c #F9E531",
"p. c #FAE036",
"a. c #FAE136",
"s. c #FAE236",
"d. c #FBE336",
"f. c #FBE437",
"g. c #FBE537",
"h. c #FCE737",
"j. c #FAED30",
"k. c #FBE836",
"l. c #FCE937",
"z. c #FCEA38",
"x. c #FCEB38",
"c. c #FDED38",
"v. c #FDF039",
"b. c #FEF139",
"n. c #FEF439",
"m. c #FFF83A",
/* pixels */
"                                                                                                    ",
"                                                                                                    ",
"                                                                                                    ",
"                                                                                                    ",
"                                                                                                    ",
"                                                                                                    ",
"                                                                                                    ",
"                                                                                                    ",
"                                                                                                    ",
"                                                                                                    ",
"                                                                                                    ",
"                                                                                                    ",
"                                                                                                    ",
"                                                                                                    ",
"                                                                                                    ",
"                                                                                                    ",
"                                                                                                    ",
"                                        - < < < < < < < < -                                         ",
"                                    X $ 6 f f q 7 f f f f 6 $ X                                     ",
"                                    $ 7 @.m.m.C 7 m.m.m.m.@.7 $                                     ",
"                                  - 4 ^ <.1.k S @.a.a.a.a.4.@.6 -                                   ",
"                              . o 5 x t.:.` w ..m.t.t.t.e.u.n.n 5 o .                               ",
"                              & 7 2.m.m.k w m.m.m.m.m.m.t.e.e.v.2.7 &                               ",
"                              & 7 >.g.g.j w m.m.m.m.m.m.t.e.e.v.2.7 &                               ",
"                              & 7 X.e.e.h w m.m.m.m.m.m.t.e.e.c.2.7 &                               ",
"                              & 7 2.m.m.k w m.m.m.m.m.m.t.e.e.c.2.7 &                               ",
"                            * , B 4.5./ Z A l.v.m.m.m.m.h.a.e.g.5.C 2 *                             ",
"                            3 c e.e.) 7 @.n.e.l.m.m.m.m.m.c.e.e.u.m.N 3                             ",
"                            3 N n.n.#.7 @.n.e.l.m.m.m.m.m.c.e.e.u.m.N 3                             ",
"                            3 N m.m.$.7 o.z.e.l.m.m.m.m.m.c.e.e.t.c.m 3                             ",
"                            3 N m.m.$.7 ^ e.e.l.m.m.m.m.m.c.e.e.e.e.c 3                             ",
"                            3 v u.u.O.7 ^ e.e. .' m.m.m.m.c.e.e.e.e.c 3                             ",
"                            3 v u.u._ 7 ^ e.e.} E m.m.m.j.i.e.e.e.e.c 3                             ",
"                            3 N m.m.$.7 ^ e.e.e.e.m.m.m.T Q e.e.e.e.c 3                             ",
"                            3 v a.a.+.7 ^ e.e.a.z.m.m.m.&.&.e.e.e.e.c 3                             ",
"                            1 h ,.7.( 8 ~ 0.8.k.m.m.m.m.r.8.e.e.q.,.h 1                             ",
"                              & 7 D H H p 0 H -.m.m.m.m.T Q e.e.X.7 &                               ",
"                              & 7 ! { { s 0 H -.m.m.m.m.-.=.e.%.! 7 &                               ",
"                              & 7 X.e.e.h 0 H -.m.m.m.m.m.c.e.W D 7 &                               ",
"                              & 7 G I I a 0 H I Y Y Y Y Y [ e.W D 7 &                               ",
"                              # ; r K [ V z u F H [ [ [ [ | e.L r ; #                               ",
"                                  < d e.e.;.7 y H e.e.e.e.e.e.d <                                   ",
"                                  O = e P R D l 9 E E E E P e = O                                   ",
"                                    + > r J J p 7 J J J J r > +                                     ",
"                                        : 7 7 7 7 7 7 7 7 :                                         ",
"                                        # % % % % % % % % #                                         ",
"                                                                                                    ",
"                                                                                                    ",
"                                                                                                    ",
"                                                                                                    "
};
