/* XPM */
static char * foe_xpm[] = {
"32 32 7 1",
" 	c #151327",
".	c #0B0B0B",
"+	c #7C6DA2",
"@	c #8B9150",
"#	c #E56F4B",
"$	c #454828",
"%	c #3E3651",
"                                ",
"                                ",
"                                ",
"                                ",
"                                ",
"                                ",
"                                ",
"                                ",
"                                ",
"                                ",
"                                ",
"                                ",
"              .   .             ",
"             .+. .+.            ",
"          .. .+. .+. ..         ",
"          .+..+...+..+.         ",
"          .+.+++++++.+.         ",
"          .+++.........         ",
"           ..+.@@@@@@.          ",
"          .....@##@@#.          ",
"          .$$$.@##@@#.          ",
"          .....@$$@@$.          ",
"           .%+...@..@.          ",
"           .%+++......          ",
"           .%+++++++.           ",
"           .$$$$$$$$.           ",
"           .@@@@@@@@.           ",
"           .@@@@@@@@.           ",
"           .$$....$$.           ",
"           .$.   .$.            ",
"           ..    ..             ",
"                                "};
