/* XPM */
static const char *foe[] = {
/* columns rows colors chars-per-pixel */
"50 50 123 2 ",
"   c #0B0B0B",
".  c #0C0C0D",
"X  c #0C0C0E",
"o  c #0C0C0F",
"O  c #0D0D10",
"+  c #0D0D12",
"@  c #0E0D12",
"#  c #0E0E14",
"$  c #0F0E16",
"%  c #0F0F17",
"&  c #100F19",
"*  c #100F1A",
"=  c #121114",
"-  c #131216",
";  c #181811",
":  c #191A13",
">  c #1A1A12",
",  c #1A1B13",
"<  c #1A1B14",
"1  c #1C1C15",
"2  c #1D1E14",
"3  c #11101B",
"4  c #17151B",
"5  c #11101D",
"6  c #12111E",
"7  c #12111F",
"8  c #15141C",
"9  c #18161D",
"0  c #19171E",
"q  c #18161F",
"w  c #202116",
"e  c #212216",
"r  c #26271A",
"t  c #27281A",
"y  c #2A2B1A",
"u  c #2B2D1C",
"i  c #2E301D",
"p  c #2E301E",
"a  c #31331E",
"s  c #121120",
"d  c #131120",
"f  c #131121",
"g  c #131122",
"h  c #131222",
"j  c #141223",
"k  c #171620",
"l  c #141224",
"z  c #151326",
"x  c #151327",
"c  c #1B1920",
"v  c #1A1825",
"b  c #201D27",
"n  c #23202B",
"m  c #343620",
"M  c #373921",
"N  c #373A21",
"B  c #393B22",
"V  c #3A3D23",
"C  c #3B3D25",
"Z  c #272431",
"A  c #2B2637",
"S  c #2F2A3D",
"D  c #3E4024",
"F  c #404227",
"G  c #424428",
"H  c #444729",
"J  c #45472B",
"K  c #454828",
"L  c #47492E",
"P  c #4A4D2D",
"I  c #484A30",
"U  c #535632",
"Y  c #575A32",
"T  c #5E6237",
"R  c #5F6337",
"E  c #63683A",
"W  c #65693C",
"Q  c #666A3C",
"!  c #6B703F",
"~  c #353044",
"^  c #3C364D",
"/  c #3C354E",
"(  c #3E3651",
")  c #3F3850",
"_  c #403952",
"`  c #413A55",
"'  c #443C57",
"]  c #463E5A",
"[  c #49415E",
"{  c #6D7140",
"}  c #717641",
"|  c #787D45",
" . c #7A7F46",
".. c #4B4260",
"X. c #4F4666",
"o. c #4F4667",
"O. c #594E73",
"+. c #5D5279",
"@. c #60557C",
"#. c #A4563A",
"$. c #BC5C3F",
"%. c #8A6F42",
"&. c #B87247",
"*. c #C76844",
"=. c #CF784C",
"-. c #E56F4B",
";. c #7B8047",
":. c #82884B",
">. c #83894C",
",. c #938C4F",
"<. c #968D4F",
"1. c #8B9150",
"2. c #8F9050",
"3. c #A7864E",
"4. c #A0894F",
"5. c #675B86",
"6. c #685C87",
"7. c #695C89",
"8. c #6C5F8D",
"9. c #6E618F",
"0. c #6F6290",
"q. c #76689A",
"w. c #7C6DA2",
/* pixels */
"x x x x x x x x x x x x x x x x x x x x x x x x x x x x x x x x x x x x x x x x x x x x x x x x x x ",
"x x x x x x x x x x x x x x x x x x x x x x x x x x x x x x x x x x x x x x x x x x x x x x x x x x ",
"x x x x x x x x x x x x x x x x x x x x x x x x x x x x x x x x x x x x x x x x x x x x x x x x x x ",
"x x x x x x x x x x x x x x x x x x x x x x x x x x x x x x x x x x x x x x x x x x x x x x x x x x ",
"x x x x x x x x x x x x x x x x x x x x x x x x x x x x x x x x x x x x x x x x x x x x x x x x x x ",
"x x x x x x x x x x x x x x x x x x x x x x x x x x x x x x x x x x x x x x x x x x x x x x x x x x ",
"x x x x x x x x x x x x x x x x x x x x x x x x x x x x x x x x x x x x x x x x x x x x x x x x x x ",
"x x x x x x x x x x x x x x x x x x x x x x x x x x x x x x x x x x x x x x x x x x x x x x x x x x ",
"x x x x x x x x x x x x x x x x x x x x x x x x x x x x x x x x x x x x x x x x x x x x x x x x x x ",
"x x x x x x x x x x x x x x x x x x x x x x x x x x x x x x x x x x x x x x x x x x x x x x x x x x ",
"x x x x x x x x x x x x x x x x x x x x x x x x x x x x x x x x x x x x x x x x x x x x x x x x x x ",
"x x x x x x x x x x x x x x x x x x x x x x x x x x x x x x x x x x x x x x x x x x x x x x x x x x ",
"x x x x x x x x x x x x x x x x x x x x x x x x x x x x x x x x x x x x x x x x x x x x x x x x x x ",
"x x x x x x x x x x x x x x x x x x x x x x x x x x x x x x x x x x x x x x x x x x x x x x x x x x ",
"x x x x x x x x x x x x x x x x x x x x x x x x x x x x x x x x x x x x x x x x x x x x x x x x x x ",
"x x x x x x x x x x x x x x x x x x x x x x x x x x x x x x x x x x x x x x x x x x x x x x x x x x ",
"x x x x x x x x x x x x x x x x x x x x x x x x x x x x x x x x x x x x x x x x x x x x x x x x x x ",
"x x x x x x x x x x x x x x x x x x x x x x x x x x x x x x x x x x x x x x x x x x x x x x x x x x ",
"x x x x x x x x x x x x x x x x x x x x x x s x x x x x s s x x x x x x x x x x x x x x x x x x x x ",
"x x x x x x x x x x x x x x x x x x x x x j   * x x x x o % x x x x x x x x x x x x x x x x x x x x ",
"x x x x x x x x x x x x x x x x x x x x * 4 O.S % x 7 % o.` % s x x x x x x x x x x x x x x x x x x ",
"x x x x x x x x x x x x x x x x j x x x % 0 w./   x *   9.O.  s x j j x x x x x x x x x x x x x x x ",
"x x x x x x x x x x x x x x x 7     @ x % 0 w./   x *   9.O.  s s     . x x x x x x x x x x x x x x ",
"x x x x x x x x x x x x x x x 7   ) / % o 0 w./   % @   9.O.  % v ..n o x x x x x x x x x x x x x x ",
"x x x x x x x x x x x x x x x 7   5.@.    0 w./         9.O.    b w.~ . x x x x x x x x x x x x x x ",
"x x x x x x x x x x x x x x x 7   5.@.  O.w.w.w.w.w.w.w.w.w.w.Z b w.~ . x x x x x x x x x x x x x x ",
"x x x x x x x x x x x x x x x 7   5.8./ 6.q...................c 4 ..n . x x x x x x x x x x x x x x ",
"x x x x x x x x x x x x x x x 7   5.w.w.w.9.                          . x x x x x x x x x x x x x x ",
"x x x x x x x x x x x x x x x x j 0 0 0 +.9.  P ;.;.;.;.;.;.;.;.W   * x x x x x x x x x x x x x x x ",
"x x x x x x x x x x x x x x x x 7 o     _ o.  U 1.3.3.3.2.1.1.4.%.  7 x x x x x x x x x x x x x x x ",
"x x x x x x x x x x x x x x x 7               U 1.-.-.-.<.1.1.=.$.  7 x x x x x x x x x x x x x x x ",
"x x x x x x x x x x x x x x x 7   i M M M a   U 1.-.-.-.<.1.1.=.$.  7 x x x x x x x x x x x x x x x ",
"x x x x x x x x x x x x x x x 7   a V V V a   U 1.*.*.*.,.1.1.&.#.  7 x x x x x x x x x x x x x x x ",
"x x x x x x x x x x x x x x x 7               U 1.K K K :.1.1.Y V   7 x x x x x x x x x x x x x x x ",
"x x x x x x x x x x x x x x x j 7 o - A ] [   r C w J } G C C E R   7 x x x x x x x x x x x x x x x ",
"x x x x x x x x x x x x x x x x x @ 0 ( 7.0.- - -   F >.>     W !   7 x x x x x x x x x x x x x x x ",
"x x x x x x x x x x x x x x x x x @ 0 ( 7.w.w.w.w.                  7 x x x x x x x x x x x x x x x ",
"x x x x x x x x x x x x x x x x x @ 0 ( 7.w.w.w.w.' ' ' ' ' ' 0 o * s x x x x x x x x x x x x x x x ",
"x x x x x x x x x x x x x x x x x @ 0 ( 7.w.w.w.w.w.w.w.w.w.w.Z @ x x x x x x x x x x x x x x x x x ",
"x x x x x x x x x x x x x x x x x @ > J L I I I I L I I I I I < @ x x x x x x x x x x x x x x x x x ",
"x x x x x x x x x x x x x x x x x @ w R R R R R R R R R R R R w @ x x x x x x x x x x x x x x x x x ",
"x x x x x x x x x x x x x x x x x @ u 1.1.1.1.1.1.1.1.1.1.1.1.u @ x x x x x x x x x x x x x x x x x ",
"x x x x x x x x x x x x x x x x x @ u 1.1.1.1.1.1.1.1.1.1.1.1.u @ x x x x x x x x x x x x x x x x x ",
"x x x x x x x x x x x x x x x x x @ t  . . .! ! ! ! ! !  . . .t @ x x x x x x x x x x x x x x x x x ",
"x x x x x x x x x x x x x x x x x @ > K K D             D K K > @ x x x x x x x x x x x x x x x x x ",
"x x x x x x x x x x x x x x x x x @ > K y 2 7 7 7 7 %   D B 2 4 s x x x x x x x x x x x x x x x x x ",
"x x x x x x x x x x x x x x x x x @ > D 2 @ x x x x *   M i o s x x x x x x x x x x x x x x x x x x ",
"x x x x x x x x x x x x x x x x x @     7 x x x x x *     % x x x x x x x x x x x x x x x x x x x x ",
"x x x x x x x x x x x x x x x x x 7 * * j x x x x x s 3 3 7 x x x x x x x x x x x x x x x x x x x x ",
"x x x x x x x x x x x x x x x x x x x x x x x x x x x x x x x x x x x x x x x x x x x x x x x x x x "
};
