/* XPM */
static const char *player[] = {
/* columns rows colors chars-per-pixel */
"50 50 174 2 ",
"   c #0B0B0B",
".  c #0F0E0B",
"X  c #0C0C0D",
"o  c #0C0C0E",
"O  c #0C0C0F",
"+  c #16120F",
"@  c #18160F",
"#  c #0D0D10",
"$  c #0D0D12",
"%  c #0E0D13",
"&  c #0E0E14",
"*  c #0F0E15",
"=  c #0F0E16",
"-  c #0F0F17",
";  c #100F18",
":  c #100F19",
">  c #100F1A",
",  c #181611",
"<  c #1F1C11",
"1  c #11101B",
"2  c #11101D",
"3  c #12111E",
"4  c #12111F",
"5  c #15141C",
"6  c #17151C",
"7  c #1D1C1B",
"8  c #221D0B",
"9  c #211813",
"0  c #2A230B",
"q  c #252010",
"w  c #252114",
"e  c #21201F",
"r  c #282319",
"t  c #302A17",
"y  c #37261C",
"u  c #322C18",
"i  c #352E1C",
"p  c #3C291E",
"a  c #39321A",
"s  c #3B331A",
"d  c #121120",
"f  c #131120",
"g  c #131121",
"h  c #131122",
"j  c #131222",
"k  c #141223",
"l  c #141224",
"z  c #141325",
"x  c #151326",
"c  c #151327",
"v  c #191721",
"b  c #1F1D28",
"n  c #222220",
"m  c #252422",
"M  c #262524",
"N  c #22202A",
"B  c #292828",
"V  c #2C2B2A",
"C  c #312F2E",
"Z  c #36322E",
"A  c #2E2C31",
"S  c #3D3A37",
"D  c #3C3A38",
"F  c #443B1D",
"G  c #463D1E",
"H  c #483E1F",
"J  c #413F3C",
"K  c #5D4E1C",
"L  c #765E0C",
"P  c #4D4220",
"I  c #4E4323",
"U  c #534822",
"Y  c #594D27",
"T  c #5E5026",
"R  c #43413F",
"E  c #44413F",
"W  c #62402C",
"Q  c #694D2C",
"!  c #605327",
"~  c #635527",
"^  c #645628",
"/  c #6D5E2B",
"(  c #7C5A35",
")  c #7F5339",
"_  c #74632D",
"`  c #736330",
"'  c #746535",
"]  c #766634",
"[  c #75673D",
"{  c #4C4947",
"}  c #524F4C",
"|  c #5D5A56",
" . c #5F5C58",
".. c #735542",
"X. c #655F52",
"o. c #625F5B",
"O. c #756844",
"+. c #756A49",
"@. c #6F6A5F",
"#. c #756C52",
"$. c #756C54",
"%. c #696561",
"&. c #726961",
"*. c #766F61",
"=. c #756F69",
"-. c #76726D",
";. c #977A17",
":. c #857029",
">. c #8C762D",
",. c #977D25",
"<. c #826535",
"1. c #826F32",
"2. c #826F33",
"3. c #816834",
"4. c #837033",
"5. c #877438",
"6. c #87753B",
"7. c #867542",
"8. c #847857",
"9. c #A77648",
"0. c #BF7D55",
"q. c #877D61",
"w. c #967E6D",
"e. c #B1901F",
"r. c #B1932F",
"t. c #C29A0D",
"y. c #D1A50D",
"u. c #D1A612",
"i. c #DAAD10",
"p. c #DCB016",
"a. c #DCB11D",
"s. c #E5B614",
"d. c #EEBE1A",
"f. c #D6AF2B",
"g. c #D4AE2C",
"h. c #DDB326",
"j. c #C1A239",
"k. c #E1B623",
"l. c #FFC90E",
"z. c #F2C117",
"x. c #F3C216",
"c. c #8E815D",
"v. c #A18D4F",
"b. c #AB9448",
"n. c #B29843",
"m. c #B89D49",
"M. c #BDA14A",
"N. c #888071",
"B. c #8A857F",
"V. c #9F8878",
"C. c #C4A74D",
"Z. c #D7B356",
"A. c #DABA55",
"S. c #DABA56",
"D. c #E0BC59",
"F. c #E8C65B",
"G. c #AA9586",
"H. c #AB9688",
"J. c #A19991",
"K. c #A39D96",
"L. c #AFA297",
"P. c #B6A598",
"I. c #B9A799",
"U. c #B4ABA2",
"Y. c #B5AEA6",
"T. c #CCC4BC",
"R. c #CFC8BF",
"E. c #D3C5B9",
"W. c #D6C9BD",
"Q. c #D1C9C0",
"!. c #D6CCC2",
"~. c #DED3C8",
"^. c #E4DACF",
"/. c #EDE4DA",
/* pixels */
"c c c c c c c c c c c c c c c c c c c c c c c c c c c c c c c c c c c c c c c c c c c c c c c c c c ",
"c c c c c c c c c c c c c c c c c c c c c c c c c c c c c c c c c c c c c c c c c c c c c c c c c c ",
"c c c c c c c c c c c c c c c c c c c c c c c c c c c c c c c c c c c c c c c c c c c c c c c c c c ",
"c c c c c c c c c c c c c c c c c c c c c c c c c c c c c c c c c c c c c c c c c c c c c c c c c c ",
"c c c c c c c c c c c c c c c c c c c c c c c c c c c c c c c c c c c c c c c c c c c c c c c c c c ",
"c c c c c c c c c c c c c c c c c c c c c c c c c c c c c c c c c c c c c c c c c c c c c c c c c c ",
"c c c c c c c c c c c c c c c c c c c c c c c c c c c c c c c c c c c c c c c c c c c c c c c c c c ",
"c c c c c c c c c c c c c c c c c c c c c c c c c c c c c c c c c c c c c c c c c c c c c c c c c c ",
"c c c c c c c c c c c c c c c c c c c c c c c c c c c c c c c c c c c c c c c c c c c c c c c c c c ",
"c c c c c c c c c c c c c c c c c c c c c c c c c c c c c c c c c c c c c c c c c c c c c c c c c c ",
"c c c c c c c c c c c c c c c c c c c c c c c c c c c c c c c c c c c c c c c c c c c c c c c c c c ",
"c c c c c c c c c c c c c c c c c c c c c c c c c c c c c c c c c c c c c c c c c c c c c c c c c c ",
"c c c c c c c c c c c c c c c c c c c c c c c c c c c c c c c c c c c c c c c c c c c c c c c c c c ",
"c c c c c c c c c c c c c c c c c c c c c c c c c c c c c c c c c c c c c c c c c c c c c c c c c c ",
"c c c c c c c c c c c c c c c c c c c c c c c c c c c c c c c c c c c c c c c c c c c c c c c c c c ",
"c c c c c c c c c c c c c c c c c c c c c c c c c c c c c c c c c c c c c c c c c c c c c c c c c c ",
"c c c c c c c c c c c c c c c c c c c c c c c c c c c c c c c c c c c c c c c c c c c c c c c c c c ",
"c c c c c c c c c c c c c c c c c c c c c c c > % c c c c d % d c c c c c c c c c c c c c c c c c c ",
"c c c c c c c c c c c c c c c c c c c c c c d A R d k c d N R b d c c c c c c c c c c c c c c c c c ",
"c c c c c c c c c c c c c c c c c c c c c k   B./.  - c O } /.R % c c c c c c c c c c c c c c c c c ",
"c c c c c c c c c c c c c c c c c c c c > %   B./.  - c O e } 7 % c c c c c c c c c c c c c c c c c ",
"c c c c c c c c c c c c c c c c c c c c - . 0 N.Q.  - k O     8 w c c c c c c c c c c c c c c c c c ",
"c c c c c c c c c c c c c c c c c c c c - 0 l.L               t.y.  2 c c c c c c c c c c c c c c c ",
"c c c c c c c c c c c c c c > - - - - - i K l.;.G 5.5.5.5.` G u.y.  % - - 2 c c c c c c c c c c c c ",
"c c c c c c c c c c c c c c X           U :.l.e._ F.F.F.F.C._ i.y.        > c c c c c c c c c c c c ",
"c c c c c c c c c c c c c c X u _ < w _ _ :.l.e._ _ e.l.:._ _ p.y.  I /   > c c c c c c c c c c c c ",
"c c c c c c c c c c c c c c O u _ F H _ _ :.l.r.+.+.r.l.7.+.+.a.i.s T /   > c c c c c c c c c c c c ",
"c c c c c c c c c c c c c c X u _ _ _ _ _ :.l.n.-.-.n.l.q.-.-.h.s._ _ /   > c c c c c c c c c c c c ",
"c c c c c c c c c c c c c c c 5 @ ~ _ _ _ ' q.j.d.d.j.q.k.d.d.v.8._ s , k c c c c c c c c c c c c c ",
"c c c c c c c c c c c c c c c 2   ! _ _ _ ' -.b.g.l.f.v.x.x.g.c.@.U r - c c c c c c c c c c c c c c ",
"c c c c c c c c c c c c c c c 2   ! _ _ _ ' -.-.-.l.l.l.l.g.-.-.o.  2 c c c c c c c c c c c c c c c ",
"c c c c c c c c c c c c c c c 2   ! _ _ _ ' -.#.[ ,.,.,.,.>.[ *.o.  2 c c c c c c c c c c c c c c c ",
"c c c c c c c c c c c c c c d 5 < ^ _ _ 4.5.*.O._ _ _ _ _ _ _ $.X.< 5 d c c c c c c c c c c c c c c ",
"c c c c c c c c c c c c c c O u _ _ _ _ C.A._ _ _ _ _ _ _ _ _ _ _ _ u O c c c c c c c c c c c c c c ",
"c c c c c c c c c c c c c c O u _ _ _ _ C.D.9.9.9.Q Q Q Q ( 9.3.1.M.I O c c c c c c c c c c c c c c ",
"c c c c c c c c c c c c c c O t / / / / m.Z.0.0.0.W W W W ) 0.<.1.A.Y O c c c c c c c c c c c c c c ",
"c c c c c c c c c c c c c c O             + W W W W W W W W W 9       X c c c c c c c c c c c c c c ",
"c c c c c c c c c c c c c c > > > O + y y p W W W W W W W W W 9 O > > > c c c c c c c c c c c c c c ",
"c c c c c c c c c c c c c c c c c % 9 W W W W W W W W W W W W 9 % c c c c c c c c c c c c c c c c c ",
"c c c c c c c c c c c c c c c c c % M =.=.&.W H.^.^.U.=.!.^.^.J % c c c c c c c c c c c c c c c c c ",
"c c c c c c c c c c c c c c c c c % C K.K.J.w.G.I.I.L.K.P.I.I.Z % c c c c c c c c c c c c c c c c c ",
"c c c c c c c c c c c c c c c c c % E /./././.V.W W V./...W W 9 % c c c c c c c c c c c c c c c c c ",
"c c c c c c c c c c c c c c c c c % R /./././.~.E.E.~./.W.E.E.S % c c c c c c c c c c c c c c c c c ",
"c c c c c c c c c c c c c c c c c % D T.T.T.Y.Y.Y.Y.Y.Y.T.R.T.D % c c c c c c c c c c c c c c c c c ",
"c c c c c c c c c c c c c c c c c % M -.-.%.            %.-.-.M % c c c c c c c c c c c c c c c c c ",
"c c c c c c c c c c c c c c c c c % M -.R B 2 2 2 2 -   %. .V v d c c c c c c c c c c c c c c c c c ",
"c c c c c c c c c c c c c c c c c % n %.B % c c c c 1   | { O d c c c c c c c c c c c c c c c c c c ",
"c c c c c c c c c c c c c c c c c %     2 c c c c c 1     - c c c c c c c c c c c c c c c c c c c c ",
"c c c c c c c c c c c c c c c c c 2 1 1 k c c c c c d 1 1 2 c c c c c c c c c c c c c c c c c c c c ",
"c c c c c c c c c c c c c c c c c c c c c c c c c c c c c c c c c c c c c c c c c c c c c c c c c c "
};
