/* XPM */
static char * player_xpm[] = {
"32 32 9 1",
" 	c #151327",
".	c #0B0B0B",
"+	c #EDE4DA",
"@	c #FFC90E",
"#	c #74632D",
"$	c #E8C65B",
"%	c #76726D",
"&	c #C58158",
"*	c #62402C",
"                                ",
"                                ",
"                                ",
"                                ",
"                                ",
"                                ",
"                                ",
"                                ",
"                                ",
"                                ",
"                                ",
"               .   .            ",
"              .+. .+.           ",
"             ..+. ...           ",
"             .@.....@.          ",
"         ....#@#$$$#@...        ",
"         .#.##@##@##@.#.        ",
"         .####@%%@%%@##.        ",
"          .###%@@%@@%#.         ",
"          .###%%@@@%%.          ",
"          .###%#####%.          ",
"         .###$########.         ",
"         .###$&&***&#$.         ",
"         .....******...         ",
"           .********.           ",
"           .%%*++%++.           ",
"           .+++**+**.           ",
"           .++++++++.           ",
"           .%%....%%.           ",
"           .%.   .%.            ",
"           ..    ..             ",
"                                "};
