/* XPM */
static char * portal_xpm[] = {
"32 32 7 1",
" 	c #151327",
".	c #3CA370",
"+	c #8FDE5D",
"@	c #3D6E70",
"#	c #385660",
"$	c #CFFF70",
"%	c #323E4F",
"                                ",
"              ....              ",
"             +.@@..             ",
"             .@@@@.             ",
"            +@@##@@.            ",
"       +$   .@#%%#@.            ",
"       $$  +.@#%%#@..           ",
"           +.@%%%%+++           ",
"           ..#%%+++++           ",
"         + .@#%+++$$$           ",
"          ..#%++$$$$$$          ",
"          .@#%+$$$$$$$          ",
"          .@#+$$+++$$$          ",
"          .@#+$++++++$          ",
"          .@#+$+%%%++$          ",
"          .@#++%%%%#+$          ",
"          +.#++%..%#++          ",
"          +.#++%+..#++          ",
"          ++.%+++..#+$          ",
"          ++...%%..#+$          ",
"          .+++...+.#++          ",
"          +..+++..%@++          ",
"           .@....%#+++          ",
"           .@#%%%%#+++          ",
"           .@@%%%%@+$           ",
"           +.@#%%#@+$           ",
"            .@@##@@++.          ",
"            +.@@@@++ .          ",
"             .@@@@+             ",
"             +.@@++             ",
"              ++++              ",
"                                "};
