/* XPM */
static char *_19e242b31ea4e0893f3459e88a283e1hongpWLW86UWiH2Z[] = {
/* columns rows colors chars-per-pixel */
"32 32 35 1 ",
"  c #523B2A",
". c #523E2E",
"X c #583E2E",
"o c #554031",
"O c #5A4233",
"+ c #5B4536",
"@ c #5B4538",
"# c #5C4638",
"$ c #5B483A",
"% c #5C483B",
"& c #58493C",
"* c #5C493C",
"= c #5E4C3F",
"- c #5B4D41",
"; c #5F4F43",
": c #5F4F44",
"> c #5C5247",
", c #5D5248",
"< c #5E544B",
"1 c #605247",
"2 c #605348",
"3 c #61564B",
"4 c #61564C",
"5 c #63584E",
"6 c #635A51",
"7 c #645950",
"8 c #645C52",
"9 c #655D54",
"0 c #665F58",
"q c #676159",
"w c #686058",
"e c #6B635C",
"r c #6B665E",
"t c #6C665E",
"y c #706B66",
/* pixels */
"&>>>>>>,>>>>>>>>>>>>>>>>>>>>>>> ",
"&>>>>>>,>>>>>>>>>>>>>>>>>>>>>>> ",
"&>>>>>>,>>>>>>>>>>>>>>>>>>>>>>>.",
"&>>>>>>,>>>>>>>>>>>>>>>>>>>>>>>.",
"&>>>>>>,>>>>>>>>>>>>>>>>>>>>>>>.",
"-<<<<<<<<<<<<<<<<<<<<<<<<<<<<<<o",
"5qqqqqqqqqqqqqqqqqqqqqqqqqqqqqq$",
";799999999999999999999999997765O",
"O#244444433333;144456666666;*%#+",
"rrrrrrrrrttttt3eyyyyyyyyyyyyyyyy",
"qqqqqqqqqqqqqq18qqqqqqqqqqqqqqqq",
"qqqqqqqqqqqqqq18qqqqqqqqqqqqqqqq",
"qqqqqqqqqqqqqq18qqqqqqqqqqqqqqqq",
"qqqqqqqqqqqqqq18qqqqqqqqqqqqqqqq",
"qqqqqqqqqqqqqq>7qqqqqqqqqqqqqqqq",
"qqqqqqqqqqqqqq*5qqqqqqqqqqqqqqqq",
"77578888888775+15999999999998889",
"O++=;;;;;;;%@OOO+24444444444>;;;",
">wrrrrrrrrrrrrrrrrrrrrrrrrrrrrr2",
"7000000000000000000000000000000>",
"6000000000000000000000000000000>",
"49000000000000000000000000000002",
"40000000000000000000000000000002",
"6000000000000000000000000000000:",
"4000000000000000000000000000000O",
";467777799967777799997777777444X",
"OO;>>>>>4441>>;;333333222222+OOO",
"rrrrrrrrrrrrrr19rrrrrrrrrrrrrrrr",
"00000000000000>60000000000000000",
"00000000000000>60000000000000000",
"00000000000000370000000000000000",
"00000000000000270000000000000000"
};
