/* XPM */
static const char *wall[] = {
/* columns rows colors chars-per-pixel */
"50 50 156 2 ",
"   c #523B2A",
".  c #523E2E",
"X  c #533E2F",
"o  c #583E2E",
"O  c #554031",
"+  c #564537",
"@  c #594030",
"#  c #5A4233",
"$  c #5A4334",
"%  c #5A4335",
"&  c #5B4435",
"*  c #594537",
"=  c #5B4536",
"-  c #5B4537",
";  c #564739",
":  c #57473A",
">  c #5B4538",
",  c #5B4638",
"<  c #5C4638",
"1  c #5C4739",
"2  c #5C473A",
"3  c #5B483A",
"4  c #5C483A",
"5  c #5C483B",
"6  c #5D493B",
"7  c #58493C",
"8  c #59493C",
"9  c #594A3D",
"0  c #5C493C",
"q  c #5D493C",
"w  c #5D493D",
"e  c #5D4A3D",
"r  c #5D4B3E",
"t  c #5E4C3F",
"y  c #5A4D41",
"u  c #5B4D41",
"i  c #5A4E42",
"p  c #5C4D41",
"a  c #5E4C40",
"s  c #5E4D41",
"d  c #5F4D41",
"f  c #5E4E41",
"g  c #5F4E42",
"h  c #5E4F43",
"j  c #5F4F43",
"k  c #5F4F44",
"l  c #5C5045",
"z  c #5E5044",
"x  c #5F5044",
"c  c #5C5247",
"v  c #5D5247",
"b  c #5F5247",
"n  c #5C5248",
"m  c #5D5248",
"M  c #5D5348",
"N  c #5D5249",
"B  c #5F5348",
"V  c #5F544A",
"C  c #5E544B",
"Z  c #604F43",
"A  c #605044",
"S  c #605045",
"D  c #605145",
"F  c #605046",
"G  c #605146",
"H  c #605247",
"J  c #605347",
"K  c #615248",
"L  c #605348",
"P  c #605349",
"I  c #615349",
"U  c #615448",
"Y  c #605449",
"T  c #61554A",
"R  c #60554B",
"E  c #61554B",
"W  c #62554B",
"Q  c #60564B",
"!  c #61564B",
"~  c #62564B",
"^  c #61564C",
"/  c #61574C",
"(  c #61564D",
")  c #60574D",
"_  c #61574D",
"`  c #62564C",
"'  c #62574C",
"]  c #62564D",
"[  c #62574D",
"{  c #63574D",
"}  c #62574E",
"|  c #61584D",
" . c #62584D",
".. c #60584E",
"X. c #61584F",
"o. c #62584E",
"O. c #63584E",
"+. c #62584F",
"@. c #63584F",
"#. c #63594F",
"$. c #625950",
"%. c #635950",
"&. c #635A50",
"*. c #635A51",
"=. c #645950",
"-. c #645951",
";. c #645A50",
":. c #645A51",
">. c #645B51",
",. c #645B52",
"<. c #655B52",
"1. c #645B53",
"2. c #645C52",
"3. c #645C53",
"4. c #655C53",
"5. c #655D53",
"6. c #645C54",
"7. c #655C54",
"8. c #655D54",
"9. c #665D54",
"0. c #665E55",
"q. c #655D56",
"w. c #655E56",
"e. c #665E56",
"r. c #665E57",
"t. c #665F57",
"y. c #685F56",
"u. c #665F58",
"i. c #676057",
"p. c #686057",
"a. c #676058",
"s. c #676158",
"d. c #676159",
"f. c #686058",
"g. c #696158",
"h. c #696159",
"j. c #696259",
"k. c #68625A",
"l. c #69625A",
"z. c #69635A",
"x. c #69635B",
"c. c #6A625B",
"v. c #6A635B",
"b. c #69645B",
"n. c #6A645B",
"m. c #69635C",
"M. c #69645C",
"N. c #6A645C",
"B. c #6A645D",
"V. c #6A655D",
"C. c #6B655D",
"Z. c #6D6761",
"A. c #6F6963",
"S. c #6F6964",
"D. c #6F6A64",
"F. c #6F6A65",
/* pixels */
"7 y c c c c c c c c c n n c c c c c c c c c c c c c c c c c c c c c c c c c c c c c c c c c c c +   ",
"7 y c c c c c c c c c n n c c c c c c c c c c c c c c c c c c c c c c c c c c c c c c c c c c c +   ",
"7 y c c c c c c c c c n n c c c c c c c c c c c c c c c c c c c c c c c c c c c c c c c c c c c +   ",
"7 y c c c c c c c c c n n c c c c c c c c c c c c c c c c c c c c c c c c c c c c c c c c c c c ; . ",
"7 y c c c c c c c c c n n c c c c c c c c c c c c c c c c c c c c c c c c c c c c c c c c c c c ; . ",
"7 y c c c c c c c c c n n c c c c c c c c c c c c c c c c c c c c c c c c c c c c c c c c c c c ; . ",
"7 y c c c c c c c c c n n c c c c c c c c c c c c c c c c c c c c c c c c c c c c c c c c c c c ; . ",
"7 y n n n n n n n n n n n n n n n n n n n n n n n n n n n n n n n n n n n n n n n n n n n n n n ; . ",
"y c C C C C C C C C C C C C C C C C C C C C C C C C C C C C C C C C C C C C C C C C C C C C C C 7 O ",
"Y } 6.6.6.6.6.6.6.6.6.6.6.6.6.6.6.6.6.6.6.6.6.6.6.6.6.6.6.6.6.6.6.6.6.6.6.6.6.6.6.6.6.6.6.6.6.9.j & ",
"} =.s.s.s.s.s.s.s.s.s.s.s.s.s.s.s.s.s.s.s.s.s.s.s.s.s.s.s.s.s.s.s.s.s.s.s.s.s.s.s.s.s.s.s.s.s.s.G 3 ",
"j I =.6.6.6.6.6.6.6.6.6.6.6.6.6.6.6.6.6.6.6.6.6.6.6.6.6.6.6.6.6.6.6.6.6.6.6.6.6.6.6.=.=.=.&.&.@.t # ",
"6 t G } @.&.&.&.&.&.&.&.&.&.&.@.&.&.&.&.@.@.Y } } &.&.&.&.&.=.=.=.9.9.9.9.9.=.=.9.=.Y I G G c j 6 & ",
"# & < G Y } } } } } } } } } Y Y Y Y Y Y Y Y j G G } } } } } @.&.&.&.&.&.&.&.&.&.&.&.G j t t 6 < & & ",
"n.n.N.N.N.N.N.N.N.N.N.N.N.N.N.N.C.C.N.N.N.c.Y 9.c.F.F.F.F.F.F.F.F.F.F.F.F.F.F.F.F.F.F.F.F.F.F.A.A.A.",
"N.N.N.N.N.N.N.N.N.N.N.N.N.N.N.N.N.N.N.N.N.c.Y =.c.Z.Z.Z.Z.Z.Z.Z.A.A.Z.Z.Z.Z.Z.Z.Z.Z.Z.Z.Z.Z.Z.A.Z.Z.",
"s.s.s.s.s.s.s.s.s.s.s.s.s.s.s.s.s.s.s.s.s.6.G @.9.s.s.s.s.s.s.s.s.s.s.s.s.s.s.s.s.s.s.s.s.s.s.s.s.s.",
"s.s.s.s.s.s.s.s.s.s.s.s.s.s.s.s.s.s.s.s.s.6.G @.9.s.s.s.s.s.s.s.s.s.s.s.s.s.s.s.s.s.s.s.s.s.s.s.s.s.",
"s.s.s.s.s.s.s.s.s.s.s.s.s.s.s.s.s.s.s.s.s.6.G @.9.s.s.s.s.s.s.s.s.s.s.s.s.s.s.s.s.s.s.s.s.s.s.s.s.s.",
"s.s.s.s.s.s.s.s.s.s.s.s.s.s.s.s.s.s.s.s.s.6.G @.9.s.s.s.s.s.s.s.s.s.s.s.s.s.s.s.s.s.s.s.s.s.s.s.s.s.",
"s.s.s.s.s.s.s.s.s.s.s.s.s.s.s.s.s.s.s.s.s.6.G @.9.s.s.s.s.s.s.s.s.s.s.s.s.s.s.s.s.s.s.s.s.s.s.s.s.s.",
"s.s.s.s.s.s.s.s.s.s.s.s.s.s.s.s.s.s.s.s.s.6.G @.9.s.s.s.s.s.s.s.s.s.s.s.s.s.s.s.s.s.s.s.s.s.s.s.s.s.",
"s.s.s.s.s.s.s.s.s.s.s.s.s.s.s.s.s.s.s.s.s.6.c } =.s.s.s.s.s.s.s.s.s.s.s.s.s.s.s.s.s.s.s.s.s.s.s.s.s.",
"s.s.s.s.s.s.s.s.s.s.s.s.s.s.s.s.s.s.s.s.s.6.j Y #.s.s.s.s.s.s.s.s.s.s.s.s.s.s.s.s.s.s.s.s.s.s.s.s.s.",
"s.s.s.s.s.s.s.s.s.s.s.s.s.s.s.s.s.s.s.s.s.6.t G @.s.s.s.s.s.s.s.s.s.s.s.s.s.s.s.s.s.s.s.s.s.s.s.s.s.",
"=.=.=.@.@.=.=.9.9.9.9.9.9.9.9.9.9.=.=.=.@.Y & t G @.=.6.6.6.6.6.6.6.6.6.6.6.6.6.6.6.6.9.9.9.9.9.9.6.",
"Z G G G G I Y } Y } Y Y Y Y Y Y Y I G G j j & 6 t c Y @.&.&.&.&.&.&.&.&.&.&.=.&.&.&.&.&.@.} Y Y } } ",
"# & & & < t j j j j j j j j j j j t < > % # # # # & t I } } } } } } } } } } } } } } } Y c c j j j j ",
"c Y 6.c.c.c.c.c.c.c.c.c.c.c.c.c.c.c.c.c.c.c.c.c.c.c.c.n.N.N.N.N.N.N.N.N.N.N.N.N.N.N.N.N.n.c.c.c.=.I ",
"C &.s.m.N.N.N.N.N.N.N.N.N.N.N.N.N.N.N.N.N.N.N.N.N.N.N.N.N.N.N.N.N.N.N.N.N.N.N.N.N.N.N.N.N.N.N.N.&.n ",
"=.9.u.u.u.u.u.u.u.u.u.u.u.u.u.u.u.u.u.u.u.u.u.u.u.u.u.u.u.u.u.u.u.u.u.u.u.u.u.u.u.u.u.u.u.u.u.u.@.c ",
"&.6.u.u.u.u.u.u.u.u.u.u.u.u.u.u.u.u.u.u.u.u.u.u.u.u.u.u.u.u.u.u.u.u.u.u.u.u.u.u.u.u.u.u.u.u.u.u.@.c ",
"&.9.6.u.u.u.u.u.u.u.u.u.u.u.u.u.u.u.u.u.u.u.u.u.u.u.u.u.u.u.u.u.u.u.u.u.u.u.u.u.u.u.u.u.u.u.u.u.@.c ",
"} @.6.6.u.u.u.u.u.u.u.u.u.u.u.u.u.u.u.u.u.u.u.u.u.u.u.u.u.u.u.u.u.u.u.u.u.u.u.u.u.u.u.u.u.u.u.u.@.I ",
"} &.6.u.u.u.u.u.u.u.u.u.u.u.u.u.u.u.u.u.u.u.u.u.u.u.u.u.u.u.u.u.u.u.u.u.u.u.u.u.u.u.u.u.u.u.u.u.@.I ",
"} &.u.u.u.u.u.u.u.u.u.u.u.u.u.u.u.u.u.u.u.u.u.u.u.u.u.u.u.u.u.u.u.u.u.u.u.u.u.u.u.u.u.u.u.u.u.u.@.I ",
"&.6.u.u.u.u.u.u.u.u.u.u.u.u.u.u.u.u.u.u.u.u.u.u.u.u.u.u.u.u.u.u.u.u.u.u.u.u.u.u.u.u.u.u.u.u.u.u.} k ",
"@.=.u.u.u.u.u.u.u.u.u.u.u.u.u.u.u.u.u.u.u.u.u.u.u.u.u.u.u.u.u.u.u.u.u.u.u.u.u.u.u.u.u.u.u.u.u.u.I 6 ",
"} &.u.u.u.u.u.u.u.u.u.u.u.u.u.u.u.u.u.u.u.u.u.u.u.u.u.u.u.u.u.u.u.u.u.u.u.u.u.u.u.u.u.u.u.u.u.u.j # ",
"c I } &.=.=.=.=.=.=.=.=.=.6.6.6.6.=.&.=.=.=.=.=.=.=.=.6.6.6.6.6.6.=.=.=.=.=.=.=.=.=.=.&.} } } } t o ",
"t t j Y } } } } } } } } @.&.&.&.&.@.} } } } Y Y Y @.&.=.&.&.&.=.&.@.} } } } } } } } } Y c j j j > # ",
"# # # j c c c c c c c c C } } } } I c c c c j j j Y Y Y Y Y Y Y Y Y Y I I I I I I I I j & % # # # # ",
"y.y.6.c.c.c.c.c.c.c.c.c.c.c.c.c.c.c.c.c.c.i.G } =.c.c.c.c.c.c.c.c.c.c.c.c.c.c.c.c.c.c.c.p.y.y.y.y.y.",
"N.N.N.N.N.N.N.N.N.N.N.N.N.N.N.N.N.N.N.N.N.c.c @.6.N.N.N.N.N.N.N.N.N.N.N.N.N.N.N.N.N.N.N.N.N.N.N.N.N.",
"u.u.u.u.u.u.u.u.u.u.u.u.u.u.u.u.u.u.u.u.u.6.c } &.s.u.u.u.u.u.u.u.u.u.u.u.u.u.u.u.u.u.u.u.u.u.u.u.u.",
"u.u.u.u.u.u.u.u.u.u.u.u.u.u.u.u.u.u.u.u.u.6.c } &.s.u.u.u.u.u.u.u.u.u.u.u.u.u.u.u.u.u.u.u.u.u.u.u.u.",
"u.u.u.u.u.u.u.u.u.u.u.u.u.u.u.u.u.u.u.u.u.6.n } &.u.u.u.u.u.u.u.u.u.u.u.u.u.u.u.u.u.u.u.u.u.u.u.u.u.",
"u.u.u.u.u.u.u.u.u.u.u.u.u.u.u.u.u.u.u.u.u.6.Y @.=.u.u.u.u.u.u.u.u.u.u.u.u.u.u.u.u.u.u.u.u.u.u.u.u.u.",
"u.u.u.u.u.u.u.u.u.u.u.u.u.u.u.u.u.u.u.u.u.6.Y } =.u.u.u.u.u.u.u.u.u.u.u.u.u.u.u.u.u.u.u.u.u.u.u.u.u.",
"u.u.u.u.u.u.u.u.u.u.u.u.u.u.u.u.u.u.u.u.u.6.I } =.u.u.u.u.u.u.u.u.u.u.u.u.u.u.u.u.u.u.u.u.u.u.u.u.u."
};
